<svg class="main-svg" xmlns="http://www.w3.org/2000/svg" xmlns:xlink="http://www.w3.org/1999/xlink" width="1200" height="800" style="" viewBox="0 0 800 533.3333333333334"><rect x="0" y="0" width="800" height="533.3333333333334" style="fill: rgb(255, 255, 255); fill-opacity: 1;"/><defs id="defs-6c9b97"><g class="clips"><clipPath id="clip6c9b97xyplot" class="plotclip"><rect width="712" height="418"/></clipPath><clipPath class="axesclip" id="clip6c9b97x"><rect x="60" y="0" width="712" height="533.3333333333334"/></clipPath><clipPath class="axesclip" id="clip6c9b97y"><rect x="0" y="50" width="800" height="418"/></clipPath><clipPath class="axesclip" id="clip6c9b97xy"><rect x="60" y="50" width="712" height="418"/></clipPath></g><g class="gradients"/><g class="patterns"/></defs><g class="bglayer"/><g class="layer-below"><g class="imagelayer"/><g class="shapelayer"><g class="shape-group" data-index="0" clip-path="url(#clip6c9b97y)"><path data-index="0" fill-rule="evenodd" d="M60,-536.66H772V-4555.28H60Z" style="opacity: 1; stroke: rgb(0, 0, 0); stroke-opacity: 0; fill: rgb(230, 195, 195); fill-opacity: 1; stroke-width: 0px;"/></g><g class="shape-group" data-index="1" clip-path="url(#clip6c9b97y)"><path data-index="1" fill-rule="evenodd" d="M60,216.84H772V-536.66H60Z" style="opacity: 1; stroke: rgb(0, 0, 0); stroke-opacity: 0; fill: rgb(230, 220, 195); fill-opacity: 1; stroke-width: 0px;"/></g><g class="shape-group" data-index="2" clip-path="url(#clip6c9b97y)"><path data-index="2" fill-rule="evenodd" d="M60,468H772V216.84H60Z" style="opacity: 1; stroke: rgb(0, 0, 0); stroke-opacity: 0; fill: rgb(195, 230, 195); fill-opacity: 1; stroke-width: 0px;"/></g><g class="shape-group" data-index="3" clip-path="url(#clip6c9b97y)"><path data-index="3" fill-rule="evenodd" d="M60,-536.66H772V-4555.28H60Z" style="opacity: 1; stroke: rgb(0, 0, 0); stroke-opacity: 0; fill: rgb(230, 195, 195); fill-opacity: 1; stroke-width: 0px;"/></g><g class="shape-group" data-index="4" clip-path="url(#clip6c9b97y)"><path data-index="4" fill-rule="evenodd" d="M60,216.84H772V-536.66H60Z" style="opacity: 1; stroke: rgb(0, 0, 0); stroke-opacity: 0; fill: rgb(230, 220, 195); fill-opacity: 1; stroke-width: 0px;"/></g><g class="shape-group" data-index="5" clip-path="url(#clip6c9b97y)"><path data-index="5" fill-rule="evenodd" d="M60,468H772V216.84H60Z" style="opacity: 1; stroke: rgb(0, 0, 0); stroke-opacity: 0; fill: rgb(195, 230, 195); fill-opacity: 1; stroke-width: 0px;"/></g></g></g><g class="cartesianlayer"><g class="subplot xy"><g class="layer-subplot"><g class="shapelayer"/><g class="imagelayer"/></g><g class="minor-gridlayer"><g class="x"/><g class="y"/></g><g class="gridlayer"><g class="x"><path class="xgrid crisp" transform="translate(139.1,0)" d="M0,50v418" style="stroke: rgb(0, 0, 0); stroke-opacity: 0.05; stroke-width: 1px;"/><path class="xgrid crisp" transform="translate(218.22,0)" d="M0,50v418" style="stroke: rgb(0, 0, 0); stroke-opacity: 0.05; stroke-width: 1px;"/><path class="xgrid crisp" transform="translate(297.33000000000004,0)" d="M0,50v418" style="stroke: rgb(0, 0, 0); stroke-opacity: 0.05; stroke-width: 1px;"/><path class="xgrid crisp" transform="translate(376.44,0)" d="M0,50v418" style="stroke: rgb(0, 0, 0); stroke-opacity: 0.05; stroke-width: 1px;"/><path class="xgrid crisp" transform="translate(455.55,0)" d="M0,50v418" style="stroke: rgb(0, 0, 0); stroke-opacity: 0.05; stroke-width: 1px;"/><path class="xgrid crisp" transform="translate(534.6600000000001,0)" d="M0,50v418" style="stroke: rgb(0, 0, 0); stroke-opacity: 0.05; stroke-width: 1px;"/><path class="xgrid crisp" transform="translate(613.78,0)" d="M0,50v418" style="stroke: rgb(0, 0, 0); stroke-opacity: 0.05; stroke-width: 1px;"/><path class="xgrid crisp" transform="translate(692.89,0)" d="M0,50v418" style="stroke: rgb(0, 0, 0); stroke-opacity: 0.05; stroke-width: 1px;"/></g><g class="y"><path class="ygrid crisp" transform="translate(0,417.77)" d="M60,0h712" style="stroke: rgb(0, 0, 0); stroke-opacity: 0.05; stroke-width: 1px;"/><path class="ygrid crisp" transform="translate(0,367.53)" d="M60,0h712" style="stroke: rgb(0, 0, 0); stroke-opacity: 0.05; stroke-width: 1px;"/><path class="ygrid crisp" transform="translate(0,317.3)" d="M60,0h712" style="stroke: rgb(0, 0, 0); stroke-opacity: 0.05; stroke-width: 1px;"/><path class="ygrid crisp" transform="translate(0,267.07)" d="M60,0h712" style="stroke: rgb(0, 0, 0); stroke-opacity: 0.05; stroke-width: 1px;"/><path class="ygrid crisp" transform="translate(0,216.84)" d="M60,0h712" style="stroke: rgb(0, 0, 0); stroke-opacity: 0.05; stroke-width: 1px;"/><path class="ygrid crisp" transform="translate(0,166.6)" d="M60,0h712" style="stroke: rgb(0, 0, 0); stroke-opacity: 0.05; stroke-width: 1px;"/><path class="ygrid crisp" transform="translate(0,116.37)" d="M60,0h712" style="stroke: rgb(0, 0, 0); stroke-opacity: 0.05; stroke-width: 1px;"/><path class="ygrid crisp" transform="translate(0,66.14)" d="M60,0h712" style="stroke: rgb(0, 0, 0); stroke-opacity: 0.05; stroke-width: 1px;"/></g></g><g class="zerolinelayer"><path class="yzl zl crisp" transform="translate(0,468)" d="M60,0h712" style="stroke: rgb(0, 0, 0); stroke-opacity: 0.05; stroke-width: 1px;"/></g><path class="xlines-below"/><path class="ylines-below"/><g class="overlines-below"/><g class="xaxislayer-below"/><g class="yaxislayer-below"/><g class="overaxes-below"/><g class="plot" transform="translate(60,50)" clip-path="url(#clip6c9b97xyplot)"><g class="scatterlayer mlayer"><g class="trace scatter tracedf5447" style="stroke-miterlimit: 2; opacity: 1;"><g class="fills"/><g class="errorbars"/><g class="lines"><path class="js-line" style="vector-effect: none; fill: none; stroke: rgb(124, 181, 236); stroke-opacity: 1; stroke-width: 2px; opacity: 1;" d="M0,410.93L0.07,405.61L3.95,399.52L11.86,379.43L15.81,363.45L23.73,335.39L27.68,328.25L35.59,312.62L39.55,309.14L43.5,308.49L47.46,305.05L83.06,304.96L87.02,304.96L233.37,304.96"/></g><g class="points"/><g class="text"/></g><g class="trace scatter trace9a9b06" style="stroke-miterlimit: 2; opacity: 1;"><g class="fills"/><g class="errorbars"/><g class="lines"><path class="js-line" style="vector-effect: none; fill: none; stroke: rgb(67, 67, 72); stroke-opacity: 1; stroke-width: 2px; opacity: 1;" d="M0,361.48L0.07,314.34L3.95,279.28L15.81,225.2L19.77,217.12L23.73,206.27L27.68,197.96L35.59,179.3L39.55,177.43L43.5,171.51L47.46,167.19L233.37,167.19"/></g><g class="points"/><g class="text"/></g><g class="trace scatter traceae5633" style="stroke-miterlimit: 2; opacity: 1;"><g class="fills"/><g class="errorbars"/><g class="lines"><path class="js-line" style="vector-effect: none; fill: none; stroke: rgb(144, 237, 125); stroke-opacity: 1; stroke-width: 2px; opacity: 1;" d="M0,418L0.07,389.18L3.95,361.46L11.86,343.96L15.81,341.38L19.77,338.38L23.73,336.88L27.68,334.06L31.64,332.32L47.46,325.08L51.41,324.2L55.37,323.18L59.33,322.98L134.48,322.56"/></g><g class="points"/><g class="text"/></g><g class="trace scatter trace9e9ced" style="stroke-miterlimit: 2; opacity: 1;"><g class="fills"/><g class="errorbars"/><g class="lines"><path class="js-line" style="vector-effect: none; fill: none; stroke: rgb(247, 163, 92); stroke-opacity: 1; stroke-width: 2px; opacity: 1;" d="M0,416.33L0.07,402.84L3.95,378.72L11.86,368.79L15.81,361.4L19.77,350.22L23.73,346.43L35.59,340.87L39.55,338.58L47.46,333.68L51.41,326.69L55.37,321.69L59.33,320.94L75.15,320.44L79.1,319.63L134.48,319.63"/></g><g class="points"/><g class="text"/></g><g class="trace scatter trace950677" style="stroke-miterlimit: 2; opacity: 1;"><g class="fills"/><g class="errorbars"/><g class="lines"><path class="js-line" style="vector-effect: none; fill: none; stroke: rgb(128, 133, 233); stroke-opacity: 1; stroke-width: 2px; opacity: 1;" d="M0,382.84L0.07,376.67L3.95,365.96L7.9,360.01L11.86,355.68L15.81,348.47L19.77,339.19L31.64,317.51L35.59,307.03L39.55,301L43.5,296.7L55.37,288.27L59.33,287L71.19,286.39L75.15,286.14L94.93,284.88L98.88,284.88L162.17,284.88"/></g><g class="points"/><g class="text"/></g><g class="trace scatter trace2fe07f" style="stroke-miterlimit: 2; opacity: 1;"><g class="fills"/><g class="errorbars"/><g class="lines"><path class="js-line" style="vector-effect: none; fill: none; stroke: rgb(241, 92, 128); stroke-opacity: 1; stroke-width: 2px; opacity: 1;" d="M0,414.65L0.06,414.23L0.06,414.23L0.07,390.83L3.95,366.13L7.9,355.95L11.86,347.07L15.81,335.36L23.73,302.06L27.68,292.29L35.59,276.57L39.55,262.62L47.46,249.86L51.41,230.66L55.37,186.58L59.33,180.27L83.06,179.57L87.02,179.23L94.93,177.8L98.88,177.72L162.17,177.3"/></g><g class="points"/><g class="text"/></g><g class="trace scatter trace7cda71" style="stroke-miterlimit: 2; opacity: 1;"><g class="fills"/><g class="errorbars"/><g class="lines"><path class="js-line" style="vector-effect: none; fill: none; stroke: rgb(228, 211, 84); stroke-opacity: 1; stroke-width: 2px; opacity: 1;" d="M0,400.84L0.06,400.42L0.06,400.42L0.07,358.17L15.81,317.93L31.64,298.63L47.46,279.95L63.28,275.26L712,275.26"/></g><g class="points"/><g class="text"/></g><g class="trace scatter trace7f26c5" style="stroke-miterlimit: 2; opacity: 1;"><g class="fills"/><g class="errorbars"/><g class="lines"><path class="js-line" style="vector-effect: none; fill: none; stroke: rgb(43, 144, 143); stroke-opacity: 1; stroke-width: 2px; opacity: 1;" d="M0,415.07L0.06,414.65L0.06,414.65L0.07,376.93L15.81,292.35L31.64,251.79L47.46,219.55L63.28,207.44L712,207.44"/></g><g class="points"/><g class="text"/></g><g class="trace scatter trace0de372" style="stroke-miterlimit: 2; opacity: 1;"><g class="fills"/><g class="errorbars"/><g class="lines"><path class="js-line" style="vector-effect: none; fill: none; stroke: rgb(244, 91, 91); stroke-opacity: 1; stroke-width: 2px; opacity: 1;" d="M0,399.16L0.07,390.98L3.95,323.8L7.9,309.26L11.86,303.3L23.73,284.61L27.68,276.43L35.59,265.14L39.55,261.67L43.5,256.39L47.46,252.76L55.37,244.15L59.33,241.3L75.15,240.51L79.1,240.51L114.7,240.51"/></g><g class="points"/><g class="text"/></g><g class="trace scatter tracedb82da" style="stroke-miterlimit: 2; opacity: 1;"><g class="fills"/><g class="errorbars"/><g class="lines"><path class="js-line" style="vector-effect: none; fill: none; stroke: rgb(145, 232, 225); stroke-opacity: 1; stroke-width: 2px; opacity: 1;" d="M0,416.74L0.06,416.33L0.07,406.99L3.95,388.35L7.9,375.13L11.86,363.2L15.81,339.65L19.77,301.69L23.73,285.15L31.64,267.95L35.59,262.13L39.55,251.54L43.5,245.02L47.46,238.1L51.41,228.23L55.37,217.35L59.33,213.18L67.24,212.46L71.19,212.09L114.7,212.05"/></g><g class="points"/><g class="text"/></g><g class="trace scatter trace504662" style="stroke-miterlimit: 2; opacity: 1;"><g class="fills"/><g class="errorbars"/><g class="lines"><path class="js-line" style="vector-effect: none; fill: none; stroke: rgb(124, 181, 236); stroke-opacity: 1; stroke-width: 2px; opacity: 1;" d="M0,402.51L0.06,402.09L0.06,402.09L0.07,362.21L3.95,267.39L7.9,233.09L11.86,215.77L15.81,203.04L23.73,184.48L27.68,176.95L39.55,159.2L43.5,155.23L51.41,147.88L55.37,142.75L59.33,139.62L63.28,138.64L75.15,138.37L79.1,138.37L118.66,137.95"/></g><g class="points"/><g class="text"/></g><g class="trace scatter trace09234b" style="stroke-miterlimit: 2; opacity: 1;"><g class="fills"/><g class="errorbars"/><g class="lines"><path class="js-line" style="vector-effect: none; fill: none; stroke: rgb(67, 67, 72); stroke-opacity: 1; stroke-width: 2px; opacity: 1;" d="M0,413.81L0.07,406.83L3.95,391.5L11.86,359.79L15.81,335.32L19.77,302.54L23.73,289.02L35.59,261.37L39.55,248.42L47.46,236.31L51.41,231.94L55.37,227.67L59.33,224.92L67.24,224.18L71.19,224.18L87.02,223.35L90.97,223.35L118.66,223.35"/></g><g class="points"/><g class="text"/></g><g class="trace scatter trace86e357" style="stroke-miterlimit: 2; opacity: 1;"><g class="fills"/><g class="errorbars"/><g class="lines"><path class="js-line" style="vector-effect: none; fill: none; stroke: rgb(144, 237, 125); stroke-opacity: 1; stroke-width: 2px; opacity: 1;" d="M0,401.67L0.07,380.4L3.95,311.19L11.86,210.34L15.81,201.76L27.68,184.64L31.64,181.09L39.55,175.05L43.5,169.67L47.46,167.57L51.41,163.63L55.37,160.39L59.33,158.7L67.24,158.05L71.19,157.82L87.02,157.63L90.97,157.63L122.62,157.63"/></g><g class="points"/><g class="text"/></g><g class="trace scatter trace77a30e" style="stroke-miterlimit: 2; opacity: 1;"><g class="fills"/><g class="errorbars"/><g class="lines"><path class="js-line" style="vector-effect: none; fill: none; stroke: rgb(247, 163, 92); stroke-opacity: 1; stroke-width: 2px; opacity: 1;" d="M0,415.07L0.07,408.72L3.95,396.74L11.86,367.15L15.81,355.78L19.77,351.07L23.73,342.14L27.68,334.96L31.64,326.01L35.59,318.48L39.55,303.6L43.5,297.82L47.46,293.47L59.33,282.47L63.28,281.95L79.1,281.12L83.06,281.12L122.62,281.12"/></g><g class="points"/><g class="text"/></g><g class="trace scatter trace99a7ac" style="stroke-miterlimit: 2; opacity: 1;"><g class="fills"/><g class="errorbars"/><g class="lines"><path class="js-line" style="vector-effect: none; fill: none; stroke: rgb(128, 133, 233); stroke-opacity: 1; stroke-width: 2px; opacity: 1;" d="M0,399.58L0.07,370.79L3.95,267.32L7.9,152.92L11.86,73.71L15.81,60.9L19.77,54.16L31.64,42.23L35.59,37.27L43.5,28.92L47.46,26.39L55.37,22.47L59.33,20.47L79.1,20.32L83.06,20.32L114.7,19.9"/></g><g class="points"/><g class="text"/></g><g class="trace scatter traceeb40fa" style="stroke-miterlimit: 2; opacity: 1;"><g class="fills"/><g class="errorbars"/><g class="lines"><path class="js-line" style="vector-effect: none; fill: none; stroke: rgb(241, 92, 128); stroke-opacity: 1; stroke-width: 2px; opacity: 1;" d="M0,412.98L0.07,407.48L3.95,389.29L7.9,373.56L11.86,363.87L19.77,350.2L23.73,338.96L35.59,324.87L39.55,318.49L47.46,312.34L51.41,307.91L55.37,304.4L59.33,303.05L98.88,302.05L102.84,302.05L114.7,302.05"/></g><g class="points"/><g class="text"/></g><g class="trace scatter trace823e14" style="stroke-miterlimit: 2; opacity: 1;"><g class="fills"/><g class="errorbars"/><g class="lines"><path class="js-line" style="vector-effect: none; fill: none; stroke: rgb(228, 211, 84); stroke-opacity: 1; stroke-width: 2px; opacity: 1;" d="M0,402.93L0.07,392.31L3.95,355.94L7.9,327.88L11.86,313.44L15.81,305.61L19.77,299.98L31.64,278.45L35.59,264.99L39.55,260.02L43.5,252.87L47.46,248.96L51.41,243.21L55.37,236.78L59.33,234.18L75.15,233.39L79.1,233.39L130.53,232.98"/></g><g class="points"/><g class="text"/></g><g class="trace scatter trace26d3a7" style="stroke-miterlimit: 2; opacity: 1;"><g class="fills"/><g class="errorbars"/><g class="lines"><path class="js-line" style="vector-effect: none; fill: none; stroke: rgb(43, 144, 143); stroke-opacity: 1; stroke-width: 2px; opacity: 1;" d="M0,415.91L0.07,389.97L3.95,314.8L11.86,290.01L15.81,278.71L19.77,262.76L23.73,242.16L27.68,228.15L31.64,219.5L35.59,211.3L39.55,193.13L43.5,187.28L47.46,183.55L51.41,176.79L55.37,146.35L59.33,138.12L63.28,137.77L79.1,137.53L83.06,137.53L114.7,136.81L118.66,136.7L130.53,136.7"/></g><g class="points"/><g class="text"/></g><g class="trace scatter trace1a4e84" style="stroke-miterlimit: 2; opacity: 1;"><g class="fills"/><g class="errorbars"/><g class="lines"><path class="js-line" style="vector-effect: none; fill: none; stroke: rgb(244, 91, 91); stroke-opacity: 1; stroke-width: 2px; opacity: 1;" d="M0,397.91L0.07,390.92L3.95,371.22L11.86,346.41L15.81,337.32L31.64,308.52L35.59,304.77L51.41,289.26L55.37,286.34L59.33,284.68L63.28,284.46L87.02,283.72L90.97,283.63L126.57,283.63"/></g><g class="points"/><g class="text"/></g><g class="trace scatter trace5aa517" style="stroke-miterlimit: 2; opacity: 1;"><g class="fills"/><g class="errorbars"/><g class="lines"><path class="js-line" style="vector-effect: none; fill: none; stroke: rgb(145, 232, 225); stroke-opacity: 1; stroke-width: 2px; opacity: 1;" d="M0,413.81L0.07,394.24L3.95,359.62L7.9,345.78L11.86,334.92L19.77,314.28L23.73,305.39L31.64,292.5L35.59,283.64L39.55,272.39L43.5,265.03L47.46,259.49L51.41,238.96L55.37,221.54L59.33,214.46L67.24,213.3L71.19,213.3L102.84,212.64L106.79,212.46L126.57,212.46"/></g><g class="points"/><g class="text"/></g></g></g><g class="overplot"/><path class="xlines-above crisp" style="fill: none;" d="M0,0"/><path class="ylines-above crisp" style="fill: none;" d="M0,0"/><g class="overlines-above"/><g class="xaxislayer-above"><g class="xtick"><text text-anchor="middle" x="0" y="484" style="font-family: TOBESTRIPPEDLucida GrandeTOBESTRIPPED, TOBESTRIPPEDOpen SansTOBESTRIPPED, verdana, arial, sans-serif; font-size: 10px; fill: rgb(0, 0, 0); fill-opacity: 1; white-space: pre; opacity: 1;" transform="translate(59.99,0)">0 bp</text></g><g class="xtick"><text text-anchor="middle" x="0" y="484" style="font-family: TOBESTRIPPEDLucida GrandeTOBESTRIPPED, TOBESTRIPPEDOpen SansTOBESTRIPPED, verdana, arial, sans-serif; font-size: 10px; fill: rgb(0, 0, 0); fill-opacity: 1; white-space: pre; opacity: 1;" transform="translate(139.1,0)">10k bp</text></g><g class="xtick"><text text-anchor="middle" x="0" y="484" style="font-family: TOBESTRIPPEDLucida GrandeTOBESTRIPPED, TOBESTRIPPEDOpen SansTOBESTRIPPED, verdana, arial, sans-serif; font-size: 10px; fill: rgb(0, 0, 0); fill-opacity: 1; white-space: pre; opacity: 1;" transform="translate(218.22,0)">20k bp</text></g><g class="xtick"><text text-anchor="middle" x="0" y="484" style="font-family: TOBESTRIPPEDLucida GrandeTOBESTRIPPED, TOBESTRIPPEDOpen SansTOBESTRIPPED, verdana, arial, sans-serif; font-size: 10px; fill: rgb(0, 0, 0); fill-opacity: 1; white-space: pre; opacity: 1;" transform="translate(297.33000000000004,0)">30k bp</text></g><g class="xtick"><text text-anchor="middle" x="0" y="484" style="font-family: TOBESTRIPPEDLucida GrandeTOBESTRIPPED, TOBESTRIPPEDOpen SansTOBESTRIPPED, verdana, arial, sans-serif; font-size: 10px; fill: rgb(0, 0, 0); fill-opacity: 1; white-space: pre; opacity: 1;" transform="translate(376.44,0)">40k bp</text></g><g class="xtick"><text text-anchor="middle" x="0" y="484" style="font-family: TOBESTRIPPEDLucida GrandeTOBESTRIPPED, TOBESTRIPPEDOpen SansTOBESTRIPPED, verdana, arial, sans-serif; font-size: 10px; fill: rgb(0, 0, 0); fill-opacity: 1; white-space: pre; opacity: 1;" transform="translate(455.55,0)">50k bp</text></g><g class="xtick"><text text-anchor="middle" x="0" y="484" style="font-family: TOBESTRIPPEDLucida GrandeTOBESTRIPPED, TOBESTRIPPEDOpen SansTOBESTRIPPED, verdana, arial, sans-serif; font-size: 10px; fill: rgb(0, 0, 0); fill-opacity: 1; white-space: pre; opacity: 1;" transform="translate(534.6600000000001,0)">60k bp</text></g><g class="xtick"><text text-anchor="middle" x="0" y="484" style="font-family: TOBESTRIPPEDLucida GrandeTOBESTRIPPED, TOBESTRIPPEDOpen SansTOBESTRIPPED, verdana, arial, sans-serif; font-size: 10px; fill: rgb(0, 0, 0); fill-opacity: 1; white-space: pre; opacity: 1;" transform="translate(613.78,0)">70k bp</text></g><g class="xtick"><text text-anchor="middle" x="0" y="484" style="font-family: TOBESTRIPPEDLucida GrandeTOBESTRIPPED, TOBESTRIPPEDOpen SansTOBESTRIPPED, verdana, arial, sans-serif; font-size: 10px; fill: rgb(0, 0, 0); fill-opacity: 1; white-space: pre; opacity: 1;" transform="translate(692.89,0)">80k bp</text></g><g class="xtick"><text text-anchor="middle" x="0" y="484" style="font-family: TOBESTRIPPEDLucida GrandeTOBESTRIPPED, TOBESTRIPPEDOpen SansTOBESTRIPPED, verdana, arial, sans-serif; font-size: 10px; fill: rgb(0, 0, 0); fill-opacity: 1; white-space: pre; opacity: 1;" transform="translate(772,0)">90k bp</text></g></g><g class="yaxislayer-above"><g class="ytick"><text text-anchor="end" x="54" y="3.5" style="font-family: TOBESTRIPPEDLucida GrandeTOBESTRIPPED, TOBESTRIPPEDOpen SansTOBESTRIPPED, verdana, arial, sans-serif; font-size: 10px; fill: rgb(0, 0, 0); fill-opacity: 1; white-space: pre; opacity: 1;" transform="translate(0,468)">0%</text></g><g class="ytick"><text text-anchor="end" x="54" y="3.5" style="font-family: TOBESTRIPPEDLucida GrandeTOBESTRIPPED, TOBESTRIPPEDOpen SansTOBESTRIPPED, verdana, arial, sans-serif; font-size: 10px; fill: rgb(0, 0, 0); fill-opacity: 1; white-space: pre; opacity: 1;" transform="translate(0,417.77)">1%</text></g><g class="ytick"><text text-anchor="end" x="54" y="3.5" style="font-family: TOBESTRIPPEDLucida GrandeTOBESTRIPPED, TOBESTRIPPEDOpen SansTOBESTRIPPED, verdana, arial, sans-serif; font-size: 10px; fill: rgb(0, 0, 0); fill-opacity: 1; white-space: pre; opacity: 1;" transform="translate(0,367.53)">2%</text></g><g class="ytick"><text text-anchor="end" x="54" y="3.5" style="font-family: TOBESTRIPPEDLucida GrandeTOBESTRIPPED, TOBESTRIPPEDOpen SansTOBESTRIPPED, verdana, arial, sans-serif; font-size: 10px; fill: rgb(0, 0, 0); fill-opacity: 1; white-space: pre; opacity: 1;" transform="translate(0,317.3)">3%</text></g><g class="ytick"><text text-anchor="end" x="54" y="3.5" style="font-family: TOBESTRIPPEDLucida GrandeTOBESTRIPPED, TOBESTRIPPEDOpen SansTOBESTRIPPED, verdana, arial, sans-serif; font-size: 10px; fill: rgb(0, 0, 0); fill-opacity: 1; white-space: pre; opacity: 1;" transform="translate(0,267.07)">4%</text></g><g class="ytick"><text text-anchor="end" x="54" y="3.5" style="font-family: TOBESTRIPPEDLucida GrandeTOBESTRIPPED, TOBESTRIPPEDOpen SansTOBESTRIPPED, verdana, arial, sans-serif; font-size: 10px; fill: rgb(0, 0, 0); fill-opacity: 1; white-space: pre; opacity: 1;" transform="translate(0,216.84)">5%</text></g><g class="ytick"><text text-anchor="end" x="54" y="3.5" style="font-family: TOBESTRIPPEDLucida GrandeTOBESTRIPPED, TOBESTRIPPEDOpen SansTOBESTRIPPED, verdana, arial, sans-serif; font-size: 10px; fill: rgb(0, 0, 0); fill-opacity: 1; white-space: pre; opacity: 1;" transform="translate(0,166.6)">6%</text></g><g class="ytick"><text text-anchor="end" x="54" y="3.5" style="font-family: TOBESTRIPPEDLucida GrandeTOBESTRIPPED, TOBESTRIPPEDOpen SansTOBESTRIPPED, verdana, arial, sans-serif; font-size: 10px; fill: rgb(0, 0, 0); fill-opacity: 1; white-space: pre; opacity: 1;" transform="translate(0,116.37)">7%</text></g><g class="ytick"><text text-anchor="end" x="54" y="3.5" style="font-family: TOBESTRIPPEDLucida GrandeTOBESTRIPPED, TOBESTRIPPEDOpen SansTOBESTRIPPED, verdana, arial, sans-serif; font-size: 10px; fill: rgb(0, 0, 0); fill-opacity: 1; white-space: pre; opacity: 1;" transform="translate(0,66.14)">8%</text></g></g><g class="overaxes-above"/></g></g><g class="polarlayer"/><g class="smithlayer"/><g class="ternarylayer"/><g class="geolayer"/><g class="funnelarealayer"/><g class="pielayer"/><g class="iciclelayer"/><g class="treemaplayer"/><g class="sunburstlayer"/><g class="glimages"/><defs id="topdefs-6c9b97"><g class="clips"/></defs><g class="layer-above"><g class="imagelayer"/><g class="shapelayer"/></g><g class="infolayer"><g class="g-gtitle"><text class="gtitle" style="font-family: TOBESTRIPPEDLucida GrandeTOBESTRIPPED, TOBESTRIPPEDOpen SansTOBESTRIPPED, verdana, arial, sans-serif; font-size: 20px; fill: rgb(68, 68, 68); opacity: 1; font-weight: normal; white-space: pre;" x="400" y="25" text-anchor="middle" dy="0em"><tspan class="line" dy="0em" x="400" y="25">FastQC: Adapter Content</tspan><tspan class="line" dy="1.3em" x="400" y="25">​<tspan style="font-size:70%" dy="-0.6em">20 samples</tspan><tspan dy="0.42em">​</tspan></tspan></text></g><g class="g-xtitle"><text class="xtitle" style="font-family: TOBESTRIPPEDLucida GrandeTOBESTRIPPED, TOBESTRIPPEDOpen SansTOBESTRIPPED, verdana, arial, sans-serif; font-size: 14px; fill: rgb(0, 0, 0); opacity: 0.3; font-weight: normal; white-space: pre;" x="416" y="520" text-anchor="middle">Position (bp)</text></g><g class="g-ytitle"><text class="ytitle" transform="rotate(-90,22,259)" style="font-family: TOBESTRIPPEDLucida GrandeTOBESTRIPPED, TOBESTRIPPEDOpen SansTOBESTRIPPED, verdana, arial, sans-serif; font-size: 14px; fill: rgb(0, 0, 0); opacity: 0.3; font-weight: normal; white-space: pre;" x="22" y="259" text-anchor="middle">% of Sequences</text></g></g></svg>