<svg class="main-svg" xmlns="http://www.w3.org/2000/svg" xmlns:xlink="http://www.w3.org/1999/xlink" width="1200" height="800" style="" viewBox="0 0 800 533.3333333333334"><rect x="0" y="0" width="800" height="533.3333333333334" style="fill: rgb(255, 255, 255); fill-opacity: 1;"/><defs id="defs-7b7e74"><g class="clips"><clipPath id="clip7b7e74xyplot" class="plotclip"><rect width="714" height="418"/></clipPath><clipPath class="axesclip" id="clip7b7e74x"><rect x="60" y="0" width="714" height="533.3333333333334"/></clipPath><clipPath class="axesclip" id="clip7b7e74y"><rect x="0" y="50" width="800" height="418"/></clipPath><clipPath class="axesclip" id="clip7b7e74xy"><rect x="60" y="50" width="714" height="418"/></clipPath></g><g class="gradients"/><g class="patterns"/></defs><g class="bglayer"/><g class="layer-below"><g class="imagelayer"/><g class="shapelayer"/></g><g class="cartesianlayer"><g class="subplot xy"><g class="layer-subplot"><g class="shapelayer"/><g class="imagelayer"/></g><g class="minor-gridlayer"><g class="x"/><g class="y"/></g><g class="gridlayer"><g class="x"><path class="xgrid crisp" transform="translate(107.6,0)" d="M0,50v418" style="stroke: rgb(0, 0, 0); stroke-opacity: 0.05; stroke-width: 1px;"/><path class="xgrid crisp" transform="translate(155.2,0)" d="M0,50v418" style="stroke: rgb(0, 0, 0); stroke-opacity: 0.05; stroke-width: 1px;"/><path class="xgrid crisp" transform="translate(202.8,0)" d="M0,50v418" style="stroke: rgb(0, 0, 0); stroke-opacity: 0.05; stroke-width: 1px;"/><path class="xgrid crisp" transform="translate(250.4,0)" d="M0,50v418" style="stroke: rgb(0, 0, 0); stroke-opacity: 0.05; stroke-width: 1px;"/><path class="xgrid crisp" transform="translate(298,0)" d="M0,50v418" style="stroke: rgb(0, 0, 0); stroke-opacity: 0.05; stroke-width: 1px;"/><path class="xgrid crisp" transform="translate(345.6,0)" d="M0,50v418" style="stroke: rgb(0, 0, 0); stroke-opacity: 0.05; stroke-width: 1px;"/><path class="xgrid crisp" transform="translate(393.2,0)" d="M0,50v418" style="stroke: rgb(0, 0, 0); stroke-opacity: 0.05; stroke-width: 1px;"/><path class="xgrid crisp" transform="translate(440.8,0)" d="M0,50v418" style="stroke: rgb(0, 0, 0); stroke-opacity: 0.05; stroke-width: 1px;"/><path class="xgrid crisp" transform="translate(488.4,0)" d="M0,50v418" style="stroke: rgb(0, 0, 0); stroke-opacity: 0.05; stroke-width: 1px;"/><path class="xgrid crisp" transform="translate(536,0)" d="M0,50v418" style="stroke: rgb(0, 0, 0); stroke-opacity: 0.05; stroke-width: 1px;"/><path class="xgrid crisp" transform="translate(583.6,0)" d="M0,50v418" style="stroke: rgb(0, 0, 0); stroke-opacity: 0.05; stroke-width: 1px;"/><path class="xgrid crisp" transform="translate(631.2,0)" d="M0,50v418" style="stroke: rgb(0, 0, 0); stroke-opacity: 0.05; stroke-width: 1px;"/><path class="xgrid crisp" transform="translate(678.8,0)" d="M0,50v418" style="stroke: rgb(0, 0, 0); stroke-opacity: 0.05; stroke-width: 1px;"/><path class="xgrid crisp" transform="translate(726.4,0)" d="M0,50v418" style="stroke: rgb(0, 0, 0); stroke-opacity: 0.05; stroke-width: 1px;"/></g><g class="y"><path class="ygrid crisp" transform="translate(0,384.4)" d="M60,0h714" style="stroke: rgb(0, 0, 0); stroke-opacity: 0.05; stroke-width: 1px;"/><path class="ygrid crisp" transform="translate(0,300.8)" d="M60,0h714" style="stroke: rgb(0, 0, 0); stroke-opacity: 0.05; stroke-width: 1px;"/><path class="ygrid crisp" transform="translate(0,217.2)" d="M60,0h714" style="stroke: rgb(0, 0, 0); stroke-opacity: 0.05; stroke-width: 1px;"/><path class="ygrid crisp" transform="translate(0,133.6)" d="M60,0h714" style="stroke: rgb(0, 0, 0); stroke-opacity: 0.05; stroke-width: 1px;"/></g></g><g class="zerolinelayer"><path class="yzl zl crisp" transform="translate(0,468)" d="M60,0h714" style="stroke: rgb(0, 0, 0); stroke-opacity: 0.05; stroke-width: 1px;"/></g><path class="xlines-below"/><path class="ylines-below"/><g class="overlines-below"/><g class="xaxislayer-below"/><g class="yaxislayer-below"/><g class="overaxes-below"/><g class="plot" transform="translate(60,50)" clip-path="url(#clip7b7e74xyplot)"><g class="scatterlayer mlayer"><g class="trace scatter trace06c1bd" style="stroke-miterlimit: 2; opacity: 1;"><g class="fills"/><g class="errorbars"/><g class="lines"><path class="js-line" style="vector-effect: none; fill: none; stroke: rgb(92, 184, 92); stroke-opacity: 1; stroke-width: 2px; opacity: 1;" d="M0,12.35L47.6,417.41L95.2,417.12L142.8,418L190.4,418L238,418L285.6,415.94L333.2,418L380.8,418L428.4,409.18L476,418L714,418"/></g><g class="points"/><g class="text"/></g><g class="trace scatter trace8a9b7f" style="stroke-miterlimit: 2; opacity: 1;"><g class="fills"/><g class="errorbars"/><g class="lines"><path class="js-line" style="vector-effect: none; fill: none; stroke: rgb(92, 184, 92); stroke-opacity: 1; stroke-width: 2px; opacity: 1;" d="M0,142.47L47.6,392.64L95.2,405.46L142.8,408.53L190.4,409.12L238,410.48L285.6,413.37L333.2,414.38L380.8,413.61L428.4,353.87L476,416.08L523.6,418L571.2,418L714,418"/></g><g class="points"/><g class="text"/></g><g class="trace scatter tracedd98ef" style="stroke-miterlimit: 2; opacity: 1;"><g class="fills"/><g class="errorbars"/><g class="lines"><path class="js-line" style="vector-effect: none; fill: none; stroke: rgb(240, 173, 78); stroke-opacity: 1; stroke-width: 2px; opacity: 1;" d="M0,150.06L47.6,400.58L95.2,408.49L190.4,412.95L238,413.82L333.2,415.77L380.8,415.18L428.4,357.39L476,388.46L523.6,409.81L571.2,418L714,418"/></g><g class="points"/><g class="text"/></g><g class="trace scatter tracee9eb90" style="stroke-miterlimit: 2; opacity: 1;"><g class="fills"/><g class="errorbars"/><g class="lines"><path class="js-line" style="vector-effect: none; fill: none; stroke: rgb(240, 173, 78); stroke-opacity: 1; stroke-width: 2px; opacity: 1;" d="M0,202.38L47.6,398.63L95.2,407.24L142.8,412.01L190.4,410.16L238,415.28L285.6,414.34L333.2,416.61L380.8,414.24L428.4,374.84L476,411.87L523.6,380.94L571.2,357.46L618.8,418L666.4,418L714,418"/></g><g class="points"/><g class="text"/></g><g class="trace scatter trace52114e" style="stroke-miterlimit: 2; opacity: 1;"><g class="fills"/><g class="errorbars"/><g class="lines"><path class="js-line" style="vector-effect: none; fill: none; stroke: rgb(240, 173, 78); stroke-opacity: 1; stroke-width: 2px; opacity: 1;" d="M0,225.2L47.6,401.28L95.2,409.43L142.8,409.08L190.4,414.52L238,410.69L285.6,413.85L333.2,416.33L380.8,415.49L428.4,387.03L476,407.31L523.6,369.27L571.2,418L618.8,336.52L666.4,418L714,418"/></g><g class="points"/><g class="text"/></g><g class="trace scatter tracee83810" style="stroke-miterlimit: 2; opacity: 1;"><g class="fills"/><g class="errorbars"/><g class="lines"><path class="js-line" style="vector-effect: none; fill: none; stroke: rgb(240, 173, 78); stroke-opacity: 1; stroke-width: 2px; opacity: 1;" d="M0,210.78L47.6,398.49L95.2,408.7L190.4,411.73L238,414.24L285.6,414.59L333.2,416.05L380.8,415.49L428.4,381.43L476,407.9L523.6,375.5L571.2,386.09L618.8,382.82L666.4,418L714,418"/></g><g class="points"/><g class="text"/></g><g class="trace scatter trace05b17b" style="stroke-miterlimit: 2; opacity: 1;"><g class="fills"/><g class="errorbars"/><g class="lines"><path class="js-line" style="vector-effect: none; fill: none; stroke: rgb(217, 83, 79); stroke-opacity: 1; stroke-width: 2px; opacity: 1;" d="M0,234.18L47.6,398.56L95.2,407.86L142.8,413.82L190.4,413.99L238,414.03L285.6,416.05L333.2,413.82L380.8,414.24L428.4,380L476,404.97L523.6,365.61L571.2,418L618.8,338.86L666.4,418L714,418"/></g><g class="points"/><g class="text"/></g><g class="trace scatter trace08c100" style="stroke-miterlimit: 2; opacity: 1;"><g class="fills"/><g class="errorbars"/><g class="lines"><path class="js-line" style="vector-effect: none; fill: none; stroke: rgb(240, 173, 78); stroke-opacity: 1; stroke-width: 2px; opacity: 1;" d="M0,216.63L47.6,399.05L95.2,408.49L190.4,413.47L238,413.82L285.6,415.56L333.2,415.49L380.8,414.55L428.4,385.05L476,402.99L523.6,377.07L571.2,418L618.8,342.93L666.4,418L714,418"/></g><g class="points"/><g class="text"/></g><g class="trace scatter tracef6c56c" style="stroke-miterlimit: 2; opacity: 1;"><g class="fills"/><g class="errorbars"/><g class="lines"><path class="js-line" style="vector-effect: none; fill: none; stroke: rgb(240, 173, 78); stroke-opacity: 1; stroke-width: 2px; opacity: 1;" d="M0,218.72L47.6,398.35L95.2,408.6L190.4,412.95L238,414.03L380.8,414.87L428.4,374.46L476,406.37L523.6,367.35L571.2,360.42L618.8,418L714,418"/></g><g class="points"/><g class="text"/></g><g class="trace scatter tracec9db41" style="stroke-miterlimit: 2; opacity: 1;"><g class="fills"/><g class="errorbars"/><g class="lines"><path class="js-line" style="vector-effect: none; fill: none; stroke: rgb(217, 83, 79); stroke-opacity: 1; stroke-width: 2px; opacity: 1;" d="M0,233.1L47.6,400.37L95.2,409.01L190.4,412.25L238,414.03L285.6,414.1L333.2,415.49L380.8,415.81L428.4,383.9L476,403.47L523.6,369.86L571.2,418L618.8,334.26L666.4,418L714,418"/></g><g class="points"/><g class="text"/></g></g></g><g class="overplot"/><path class="xlines-above crisp" style="fill: none;" d="M0,0"/><path class="ylines-above crisp" style="fill: none;" d="M0,0"/><g class="overlines-above"/><g class="xaxislayer-above"><g class="xtick"><text text-anchor="middle" x="0" y="484" style="font-family: TOBESTRIPPEDLucida GrandeTOBESTRIPPED, TOBESTRIPPEDOpen SansTOBESTRIPPED, verdana, arial, sans-serif; font-size: 10px; fill: rgb(0, 0, 0); fill-opacity: 1; white-space: pre; opacity: 1;" transform="translate(60,0)">1</text></g><g class="xtick"><text text-anchor="middle" x="0" y="484" style="font-family: TOBESTRIPPEDLucida GrandeTOBESTRIPPED, TOBESTRIPPEDOpen SansTOBESTRIPPED, verdana, arial, sans-serif; font-size: 10px; fill: rgb(0, 0, 0); fill-opacity: 1; white-space: pre; opacity: 1;" transform="translate(107.6,0)">2</text></g><g class="xtick"><text text-anchor="middle" x="0" y="484" style="font-family: TOBESTRIPPEDLucida GrandeTOBESTRIPPED, TOBESTRIPPEDOpen SansTOBESTRIPPED, verdana, arial, sans-serif; font-size: 10px; fill: rgb(0, 0, 0); fill-opacity: 1; white-space: pre; opacity: 1;" transform="translate(155.2,0)">3</text></g><g class="xtick"><text text-anchor="middle" x="0" y="484" style="font-family: TOBESTRIPPEDLucida GrandeTOBESTRIPPED, TOBESTRIPPEDOpen SansTOBESTRIPPED, verdana, arial, sans-serif; font-size: 10px; fill: rgb(0, 0, 0); fill-opacity: 1; white-space: pre; opacity: 1;" transform="translate(202.8,0)">4</text></g><g class="xtick"><text text-anchor="middle" x="0" y="484" style="font-family: TOBESTRIPPEDLucida GrandeTOBESTRIPPED, TOBESTRIPPEDOpen SansTOBESTRIPPED, verdana, arial, sans-serif; font-size: 10px; fill: rgb(0, 0, 0); fill-opacity: 1; white-space: pre; opacity: 1;" transform="translate(250.4,0)">5</text></g><g class="xtick"><text text-anchor="middle" x="0" y="484" style="font-family: TOBESTRIPPEDLucida GrandeTOBESTRIPPED, TOBESTRIPPEDOpen SansTOBESTRIPPED, verdana, arial, sans-serif; font-size: 10px; fill: rgb(0, 0, 0); fill-opacity: 1; white-space: pre; opacity: 1;" transform="translate(298,0)">6</text></g><g class="xtick"><text text-anchor="middle" x="0" y="484" style="font-family: TOBESTRIPPEDLucida GrandeTOBESTRIPPED, TOBESTRIPPEDOpen SansTOBESTRIPPED, verdana, arial, sans-serif; font-size: 10px; fill: rgb(0, 0, 0); fill-opacity: 1; white-space: pre; opacity: 1;" transform="translate(345.6,0)">7</text></g><g class="xtick"><text text-anchor="middle" x="0" y="484" style="font-family: TOBESTRIPPEDLucida GrandeTOBESTRIPPED, TOBESTRIPPEDOpen SansTOBESTRIPPED, verdana, arial, sans-serif; font-size: 10px; fill: rgb(0, 0, 0); fill-opacity: 1; white-space: pre; opacity: 1;" transform="translate(393.2,0)">8</text></g><g class="xtick"><text text-anchor="middle" x="0" y="484" style="font-family: TOBESTRIPPEDLucida GrandeTOBESTRIPPED, TOBESTRIPPEDOpen SansTOBESTRIPPED, verdana, arial, sans-serif; font-size: 10px; fill: rgb(0, 0, 0); fill-opacity: 1; white-space: pre; opacity: 1;" transform="translate(440.8,0)">9</text></g><g class="xtick"><text text-anchor="middle" x="0" y="484" style="font-family: TOBESTRIPPEDLucida GrandeTOBESTRIPPED, TOBESTRIPPEDOpen SansTOBESTRIPPED, verdana, arial, sans-serif; font-size: 10px; fill: rgb(0, 0, 0); fill-opacity: 1; white-space: pre; opacity: 1;" transform="translate(488.4,0)">>10</text></g><g class="xtick"><text text-anchor="middle" x="0" y="484" style="font-family: TOBESTRIPPEDLucida GrandeTOBESTRIPPED, TOBESTRIPPEDOpen SansTOBESTRIPPED, verdana, arial, sans-serif; font-size: 10px; fill: rgb(0, 0, 0); fill-opacity: 1; white-space: pre; opacity: 1;" transform="translate(536,0)">>50</text></g><g class="xtick"><text text-anchor="middle" x="0" y="484" style="font-family: TOBESTRIPPEDLucida GrandeTOBESTRIPPED, TOBESTRIPPEDOpen SansTOBESTRIPPED, verdana, arial, sans-serif; font-size: 10px; fill: rgb(0, 0, 0); fill-opacity: 1; white-space: pre; opacity: 1;" transform="translate(583.6,0)">>100</text></g><g class="xtick"><text text-anchor="middle" x="0" y="484" style="font-family: TOBESTRIPPEDLucida GrandeTOBESTRIPPED, TOBESTRIPPEDOpen SansTOBESTRIPPED, verdana, arial, sans-serif; font-size: 10px; fill: rgb(0, 0, 0); fill-opacity: 1; white-space: pre; opacity: 1;" transform="translate(631.2,0)">>500</text></g><g class="xtick"><text text-anchor="middle" x="0" y="484" style="font-family: TOBESTRIPPEDLucida GrandeTOBESTRIPPED, TOBESTRIPPEDOpen SansTOBESTRIPPED, verdana, arial, sans-serif; font-size: 10px; fill: rgb(0, 0, 0); fill-opacity: 1; white-space: pre; opacity: 1;" transform="translate(678.8,0)">>1k</text></g><g class="xtick"><text text-anchor="middle" x="0" y="484" style="font-family: TOBESTRIPPEDLucida GrandeTOBESTRIPPED, TOBESTRIPPEDOpen SansTOBESTRIPPED, verdana, arial, sans-serif; font-size: 10px; fill: rgb(0, 0, 0); fill-opacity: 1; white-space: pre; opacity: 1;" transform="translate(726.4,0)">>5k</text></g><g class="xtick"><text text-anchor="middle" x="0" y="484" style="font-family: TOBESTRIPPEDLucida GrandeTOBESTRIPPED, TOBESTRIPPEDOpen SansTOBESTRIPPED, verdana, arial, sans-serif; font-size: 10px; fill: rgb(0, 0, 0); fill-opacity: 1; white-space: pre; opacity: 1;" transform="translate(774,0)">>10k+</text></g></g><g class="yaxislayer-above"><g class="ytick"><text text-anchor="end" x="54" y="3.5" style="font-family: TOBESTRIPPEDLucida GrandeTOBESTRIPPED, TOBESTRIPPEDOpen SansTOBESTRIPPED, verdana, arial, sans-serif; font-size: 10px; fill: rgb(0, 0, 0); fill-opacity: 1; white-space: pre; opacity: 1;" transform="translate(0,468)">0%</text></g><g class="ytick"><text text-anchor="end" x="54" y="3.5" style="font-family: TOBESTRIPPEDLucida GrandeTOBESTRIPPED, TOBESTRIPPEDOpen SansTOBESTRIPPED, verdana, arial, sans-serif; font-size: 10px; fill: rgb(0, 0, 0); fill-opacity: 1; white-space: pre; opacity: 1;" transform="translate(0,384.4)">20%</text></g><g class="ytick"><text text-anchor="end" x="54" y="3.5" style="font-family: TOBESTRIPPEDLucida GrandeTOBESTRIPPED, TOBESTRIPPEDOpen SansTOBESTRIPPED, verdana, arial, sans-serif; font-size: 10px; fill: rgb(0, 0, 0); fill-opacity: 1; white-space: pre; opacity: 1;" transform="translate(0,300.8)">40%</text></g><g class="ytick"><text text-anchor="end" x="54" y="3.5" style="font-family: TOBESTRIPPEDLucida GrandeTOBESTRIPPED, TOBESTRIPPEDOpen SansTOBESTRIPPED, verdana, arial, sans-serif; font-size: 10px; fill: rgb(0, 0, 0); fill-opacity: 1; white-space: pre; opacity: 1;" transform="translate(0,217.2)">60%</text></g><g class="ytick"><text text-anchor="end" x="54" y="3.5" style="font-family: TOBESTRIPPEDLucida GrandeTOBESTRIPPED, TOBESTRIPPEDOpen SansTOBESTRIPPED, verdana, arial, sans-serif; font-size: 10px; fill: rgb(0, 0, 0); fill-opacity: 1; white-space: pre; opacity: 1;" transform="translate(0,133.6)">80%</text></g><g class="ytick"><text text-anchor="end" x="54" y="3.5" style="font-family: TOBESTRIPPEDLucida GrandeTOBESTRIPPED, TOBESTRIPPEDOpen SansTOBESTRIPPED, verdana, arial, sans-serif; font-size: 10px; fill: rgb(0, 0, 0); fill-opacity: 1; white-space: pre; opacity: 1;" transform="translate(0,50)">100%</text></g></g><g class="overaxes-above"/></g></g><g class="polarlayer"/><g class="smithlayer"/><g class="ternarylayer"/><g class="geolayer"/><g class="funnelarealayer"/><g class="pielayer"/><g class="iciclelayer"/><g class="treemaplayer"/><g class="sunburstlayer"/><g class="glimages"/><defs id="topdefs-7b7e74"><g class="clips"/></defs><g class="layer-above"><g class="imagelayer"/><g class="shapelayer"/></g><g class="infolayer"><g class="g-gtitle"><text class="gtitle" style="font-family: TOBESTRIPPEDLucida GrandeTOBESTRIPPED, TOBESTRIPPEDOpen SansTOBESTRIPPED, verdana, arial, sans-serif; font-size: 20px; fill: rgb(68, 68, 68); opacity: 1; font-weight: normal; white-space: pre;" x="400" y="25" text-anchor="middle" dy="0em"><tspan class="line" dy="0em" x="400" y="25">FastQC: Sequence Duplication Levels</tspan><tspan class="line" dy="1.3em" x="400" y="25">​<tspan style="font-size:70%" dy="-0.6em">10 samples</tspan><tspan dy="0.42em">​</tspan></tspan></text></g><g class="g-xtitle"><text class="xtitle" style="font-family: TOBESTRIPPEDLucida GrandeTOBESTRIPPED, TOBESTRIPPEDOpen SansTOBESTRIPPED, verdana, arial, sans-serif; font-size: 14px; fill: rgb(0, 0, 0); opacity: 0.3; font-weight: normal; white-space: pre;" x="417" y="520" text-anchor="middle">Sequence Duplication Level</text></g><g class="g-ytitle"><text class="ytitle" transform="rotate(-90,22,259)" style="font-family: TOBESTRIPPEDLucida GrandeTOBESTRIPPED, TOBESTRIPPEDOpen SansTOBESTRIPPED, verdana, arial, sans-serif; font-size: 14px; fill: rgb(0, 0, 0); opacity: 0.3; font-weight: normal; white-space: pre;" x="22" y="259" text-anchor="middle">% of Library</text></g></g></svg>